<svg width="500" height="143" viewBox="0 0 500 143" fill="none" xmlns="http://www.w3.org/2000/svg">
<path fill-rule="evenodd" clip-rule="evenodd" d="M108.528 12.3219C76.1018 -6.38236 26.6144 -4.80753 7.89285 27.5892C-10.8287 59.986 6.18657 115.249 38.6132 133.953C71.0398 152.657 114.622 137.245 133.344 104.849C152.065 72.4518 140.955 31.0262 108.528 12.3219ZM75.5623 48.7429C76.3427 47.9404 77.3985 47.5391 78.7297 47.5391C80.0609 47.5391 81.1167 47.9404 81.8971 48.7429C82.6775 49.5455 83.0676 50.6118 83.0676 51.9418V76.7759L83.0498 77.9172C82.8592 83.9182 81.1437 88.5482 77.9034 91.8071C74.4606 95.2696 69.4342 97.0009 62.824 97.0009C56.1679 97.0009 51.1185 95.2811 47.6757 91.8415C44.2329 88.4018 42.5115 83.38 42.5115 76.7759V51.9418L42.5354 51.3879C42.6309 50.3125 43.0132 49.4309 43.682 48.7429C44.4624 47.9404 45.5182 47.5391 46.8494 47.5391C48.1806 47.5391 49.2364 47.9404 50.0168 48.7429C50.7972 49.5455 51.1873 50.6118 51.1873 51.9418V77.2574L51.2049 78.2024C51.345 81.9099 52.3261 84.7479 54.1481 86.7164C56.122 88.849 59.014 89.9153 62.824 89.9153C66.5881 89.9153 69.4571 88.8375 71.431 86.682C73.4049 84.5265 74.3918 81.385 74.3918 77.2574V51.9418L74.4157 51.3879C74.5112 50.3125 74.8935 49.4309 75.5623 48.7429ZM94.4633 48.7429C95.2666 47.9404 96.3339 47.5391 97.6651 47.5391C99.0422 47.5391 100.132 47.9404 100.936 48.7429C101.739 49.5455 102.141 50.6118 102.141 51.9418V92.323L102.116 92.8776C102.018 93.9558 101.624 94.8487 100.936 95.5563C100.132 96.3818 99.0422 96.7945 97.6651 96.7945C96.3339 96.7945 95.2666 96.3818 94.4633 95.5563C93.66 94.7308 93.2583 93.653 93.2583 92.323V51.9418L93.2829 51.3879C93.3813 50.3125 93.7747 49.4309 94.4633 48.7429Z" fill="#242E4C"/>
<path fill-rule="evenodd" clip-rule="evenodd" d="M196.714 86.7641C193.005 90.3536 187.79 92.1484 181.071 92.1484H169.535C168.408 92.1484 167.525 91.838 166.884 91.2171C166.243 90.5962 165.923 89.723 165.923 88.5977V54.6618C165.923 53.5364 166.243 52.6633 166.884 52.0424C167.525 51.4215 168.408 51.111 169.535 51.111H181.071C187.79 51.111 193.005 52.9058 196.714 56.4954C200.424 60.0849 202.278 65.12 202.278 71.6006C202.278 78.12 200.424 83.1745 196.714 86.7641ZM173.438 86.0365H180.605C190.043 86.0365 194.763 81.2245 194.763 71.6006C194.763 62.0155 190.043 57.223 180.605 57.223H173.438V86.0365Z" fill="#242E4C"/>
<path fill-rule="evenodd" clip-rule="evenodd" d="M227.331 91.9447C225.661 92.391 224.069 92.6141 222.554 92.6141C217.971 92.6141 214.339 91.2947 211.659 88.6559C208.979 86.0171 207.639 82.4081 207.639 77.829C207.639 74.9185 208.221 72.3379 209.387 70.0872C210.552 67.8364 212.193 66.0902 214.31 64.8484C216.427 63.6066 218.825 62.9857 221.505 62.9857C224.069 62.9857 226.302 63.5484 228.205 64.6737C230.109 65.7991 231.585 67.3902 232.633 69.4469C233.682 71.5036 234.206 73.929 234.206 76.723C234.206 78.3917 233.468 79.226 231.992 79.226H214.805C215.038 81.9036 215.795 83.873 217.077 85.1342C218.359 86.3954 220.223 87.026 222.67 87.026C223.913 87.026 225.011 86.8708 225.962 86.5604C226.914 86.2499 227.992 85.823 229.196 85.2798C230.361 84.6589 231.216 84.3484 231.759 84.3484C232.42 84.3484 232.954 84.6006 233.362 85.1051C233.769 85.6096 233.973 86.2887 233.973 87.1424C233.973 88.3454 233.255 89.3544 231.818 90.1693C230.497 90.9066 229.002 91.4984 227.331 91.9447ZM214.805 75.326H227.972C227.895 72.9588 227.312 71.1641 226.224 69.9417C225.137 68.7193 223.622 68.1081 221.68 68.1081C219.699 68.1081 218.116 68.729 216.932 69.9708C215.747 71.2126 215.038 72.9976 214.805 75.326Z" fill="#242E4C"/>
<path d="M259.23 90.2275C257.036 91.8186 254.113 92.6141 250.462 92.6141C246.228 92.6141 242.81 91.7798 240.208 90.1111C238.965 89.3738 238.343 88.326 238.343 86.9678C238.343 86.1917 238.557 85.5611 238.984 85.076C239.411 84.5909 239.936 84.3484 240.557 84.3484C241.217 84.3484 242.13 84.6589 243.295 85.2798C244.538 85.8618 245.674 86.3081 246.704 86.6186C247.733 86.929 249.044 87.0842 250.637 87.0842C252.268 87.0842 253.54 86.8126 254.453 86.2693C255.366 85.726 255.822 84.9693 255.822 83.9992C255.822 83.3395 255.637 82.8156 255.268 82.4275C254.899 82.0395 254.239 81.6805 253.287 81.3506C252.336 81.0208 250.889 80.6424 248.947 80.2156C245.49 79.5171 243.014 78.5275 241.518 77.2469C240.023 75.9663 239.275 74.2006 239.275 71.9499C239.275 70.2424 239.78 68.6999 240.79 67.3223C241.8 65.9446 243.189 64.8775 244.956 64.1208C246.723 63.364 248.733 62.9857 250.986 62.9857C252.617 62.9857 254.191 63.1894 255.705 63.5969C257.22 64.0043 258.58 64.5961 259.784 65.3723C261.027 66.1484 261.648 67.1767 261.648 68.4573C261.648 69.2335 261.435 69.8835 261.007 70.4073C260.58 70.9312 260.056 71.1932 259.434 71.1932C259.007 71.1932 258.589 71.1058 258.182 70.9312C257.774 70.7566 257.259 70.4947 256.638 70.1454C255.511 69.5633 254.54 69.1267 253.724 68.8357C252.909 68.5446 251.899 68.3991 250.695 68.3991C249.258 68.3991 248.122 68.6902 247.286 69.2723C246.451 69.8544 246.034 70.6499 246.034 71.6588C246.034 72.629 246.461 73.3663 247.316 73.8708C248.17 74.3753 249.821 74.8797 252.268 75.3842C254.87 75.9275 256.909 76.5484 258.385 77.2469C259.861 77.9454 260.92 78.8185 261.561 79.8663C262.202 80.9141 262.522 82.2529 262.522 83.8827C262.522 86.5215 261.425 88.6365 259.23 90.2275Z" fill="#242E4C"/>
<path d="M275.165 56.8446C274.388 57.5625 273.34 57.9215 272.019 57.9215C270.698 57.9215 269.65 57.5625 268.873 56.8446C268.096 56.1267 267.707 55.1857 267.707 54.0215C267.707 52.8573 268.096 51.926 268.873 51.2275C269.65 50.5289 270.698 50.1797 272.019 50.1797C273.301 50.1797 274.34 50.5289 275.136 51.2275C275.932 51.926 276.33 52.8573 276.33 54.0215C276.33 55.1857 275.942 56.1267 275.165 56.8446Z" fill="#242E4C"/>
<path d="M274.641 91.5954C273.942 92.1969 273.068 92.4977 272.019 92.4977C270.97 92.4977 270.106 92.1969 269.426 91.5954C268.747 90.9939 268.407 90.1305 268.407 89.0051V66.5364C268.407 65.4111 268.747 64.5573 269.426 63.9752C270.106 63.3931 270.97 63.1021 272.019 63.1021C273.068 63.1021 273.942 63.3931 274.641 63.9752C275.34 64.5573 275.689 65.4111 275.689 66.5364V89.0051C275.689 90.1305 275.34 90.9939 274.641 91.5954Z" fill="#242E4C"/>
<path fill-rule="evenodd" clip-rule="evenodd" d="M307.21 99.6574C304.724 101.947 301.053 103.092 296.198 103.092C291.964 103.092 288.43 102.296 285.594 100.705C284.157 99.8514 283.438 98.8231 283.438 97.6201C283.438 96.7663 283.642 96.0872 284.05 95.5828C284.458 95.0783 284.992 94.826 285.652 94.826C286.002 94.826 286.429 94.9134 286.934 95.088C287.439 95.2626 287.964 95.4663 288.507 95.6992C289.906 96.2813 291.158 96.7275 292.265 97.038C293.372 97.3484 294.644 97.5037 296.081 97.5037C301.17 97.5037 303.714 95.0201 303.714 90.0529V86.3275C302.859 87.9186 301.616 89.1507 299.985 90.0238C298.354 90.8969 296.489 91.3335 294.392 91.3335C291.906 91.3335 289.702 90.7417 287.779 89.5581C285.856 88.3745 284.351 86.7156 283.264 84.5812C282.176 82.4469 281.632 79.9827 281.632 77.1887C281.632 74.3947 282.166 71.9208 283.235 69.767C284.303 67.6133 285.808 65.9446 287.75 64.7611C289.692 63.5775 291.906 62.9857 294.392 62.9857C296.489 62.9857 298.354 63.4222 299.985 64.2954C301.616 65.1685 302.859 66.4006 303.714 67.9917V66.4782C303.714 65.4693 304.044 64.6543 304.704 64.0334C305.365 63.4126 306.239 63.1021 307.326 63.1021C308.414 63.1021 309.288 63.4126 309.948 64.0334C310.608 64.6543 310.938 65.4887 310.938 66.5364V89.529C310.938 93.9917 309.695 97.3678 307.21 99.6574ZM290.896 83.4171C292.217 84.9305 294.023 85.6872 296.314 85.6872C298.645 85.6872 300.461 84.9305 301.762 83.4171C303.063 81.9036 303.714 79.8275 303.714 77.1887C303.714 74.5111 303.063 72.4156 301.762 70.9021C300.461 69.3887 298.645 68.632 296.314 68.632C294.023 68.632 292.217 69.3887 290.896 70.9021C289.575 72.4156 288.915 74.5111 288.915 77.1887C288.915 79.8275 289.575 81.9036 290.896 83.4171Z" fill="#242E4C"/>
<path d="M344.177 91.5663C343.536 92.1872 342.653 92.4977 341.526 92.4977C340.4 92.4977 339.507 92.1872 338.846 91.5663C338.186 90.9454 337.856 90.0917 337.856 89.0051V75.0932C337.856 72.8812 337.438 71.2708 336.603 70.2618C335.768 69.2529 334.457 68.7484 332.67 68.7484C330.573 68.7484 328.893 69.4081 327.631 70.7275C326.368 72.0469 325.737 73.8126 325.737 76.0245V89.0051C325.737 90.0917 325.407 90.9454 324.747 91.5663C324.086 92.1872 323.193 92.4977 322.067 92.4977C320.94 92.4977 320.057 92.1872 319.416 91.5663C318.775 90.9454 318.454 90.0917 318.454 89.0051V66.4782C318.454 65.4693 318.784 64.6543 319.445 64.0334C320.105 63.4126 320.998 63.1021 322.125 63.1021C323.135 63.1021 323.96 63.4028 324.601 64.0043C325.242 64.6058 325.562 65.3917 325.562 66.3618V67.9335C326.533 66.3424 327.835 65.12 329.466 64.2663C331.097 63.4126 332.942 62.9857 335.001 62.9857C338.419 62.9857 340.963 63.9558 342.633 65.8961C344.304 67.8364 345.139 70.7663 345.139 74.6857V89.0051C345.139 90.0917 344.818 90.9454 344.177 91.5663Z" fill="#242E4C"/>
<path fill-rule="evenodd" clip-rule="evenodd" d="M399.76 86.7641C396.051 90.3536 390.836 92.1484 384.116 92.1484H372.58C371.454 92.1484 370.57 91.838 369.929 91.2171C369.289 90.5962 368.968 89.723 368.968 88.5977V54.6618C368.968 53.5364 369.289 52.6633 369.929 52.0424C370.57 51.4215 371.454 51.111 372.58 51.111H384.116C390.836 51.111 396.051 52.9058 399.76 56.4954C403.469 60.0849 405.324 65.12 405.324 71.6006C405.324 78.12 403.469 83.1745 399.76 86.7641ZM376.484 86.0365H383.65C393.089 86.0365 397.808 81.2245 397.808 71.6006C397.808 62.0155 393.089 57.223 383.65 57.223H376.484V86.0365Z" fill="#242E4C"/>
<path fill-rule="evenodd" clip-rule="evenodd" d="M426.269 91.3335C424.852 92.1872 423.211 92.6141 421.346 92.6141C419.443 92.6141 417.715 92.226 416.161 91.4499C414.607 90.6738 413.384 89.6066 412.49 88.2484C411.597 86.8902 411.15 85.3768 411.15 83.7081C411.15 81.6126 411.684 79.9633 412.753 78.7603C413.821 77.5574 415.559 76.6842 417.967 76.1409C420.375 75.5976 423.696 75.326 427.93 75.326H429.387V73.9872C429.387 72.0857 428.979 70.6984 428.163 69.8252C427.347 68.9521 426.027 68.5155 424.201 68.5155C423.075 68.5155 421.929 68.6805 420.764 69.0103C419.598 69.3402 418.22 69.8155 416.627 70.4364C415.617 70.9409 414.879 71.1932 414.413 71.1932C413.714 71.1932 413.141 70.9409 412.694 70.4364C412.248 69.932 412.024 69.2723 412.024 68.4573C412.024 67.7976 412.189 67.2252 412.519 66.7402C412.85 66.2551 413.403 65.7991 414.18 65.3723C415.539 64.6349 417.161 64.0528 419.045 63.626C420.929 63.1991 422.783 62.9857 424.609 62.9857C428.571 62.9857 431.513 63.9655 433.436 65.9252C435.358 67.8849 436.32 70.8633 436.32 74.8603V89.0633C436.32 90.1111 436.009 90.9357 435.388 91.5372C434.766 92.1387 433.912 92.4395 432.824 92.4395C431.814 92.4395 430.989 92.129 430.348 91.5081C429.707 90.8872 429.387 90.0723 429.387 89.0633V87.7827C428.726 89.2962 427.687 90.4798 426.269 91.3335ZM419.569 86.182C420.443 86.9775 421.521 87.3753 422.803 87.3753C424.745 87.3753 426.328 86.7253 427.551 85.4253C428.775 84.1253 429.387 82.4469 429.387 80.3902V79.1678H428.338C425.735 79.1678 423.716 79.2842 422.278 79.5171C420.841 79.7499 419.812 80.1574 419.191 80.7394C418.569 81.3215 418.258 82.1171 418.258 83.126C418.258 84.3678 418.695 85.3865 419.569 86.182Z" fill="#242E4C"/>
<path d="M450.478 56.8446C449.701 57.5625 448.652 57.9215 447.331 57.9215C446.011 57.9215 444.962 57.5625 444.185 56.8446C443.408 56.1267 443.02 55.1857 443.02 54.0215C443.02 52.8573 443.408 51.926 444.185 51.2275C444.962 50.5289 446.011 50.1797 447.331 50.1797C448.613 50.1797 449.652 50.5289 450.448 51.2275C451.245 51.926 451.643 52.8573 451.643 54.0215C451.643 55.1857 451.254 56.1267 450.478 56.8446Z" fill="#242E4C"/>
<path d="M449.953 91.5954C449.254 92.1969 448.38 92.4977 447.331 92.4977C446.283 92.4977 445.418 92.1969 444.739 91.5954C444.059 90.9939 443.719 90.1305 443.719 89.0051V66.5364C443.719 65.4111 444.059 64.5573 444.739 63.9752C445.418 63.3931 446.283 63.1021 447.331 63.1021C448.38 63.1021 449.254 63.3931 449.953 63.9752C450.652 64.5573 451.002 65.4111 451.002 66.5364V89.0051C451.002 90.1305 450.652 90.9939 449.953 91.5954Z" fill="#242E4C"/>
<path d="M464.752 91.5954C464.053 92.1969 463.179 92.4977 462.13 92.4977C461.081 92.4977 460.217 92.1969 459.537 91.5954C458.858 90.9939 458.518 90.1305 458.518 89.0051V54.2543C458.518 53.1289 458.858 52.2752 459.537 51.6931C460.217 51.111 461.081 50.82 462.13 50.82C463.179 50.82 464.053 51.111 464.752 51.6931C465.451 52.2752 465.801 53.1289 465.801 54.2543V89.0051C465.801 90.1305 465.451 90.9939 464.752 91.5954Z" fill="#242E4C"/>
<path d="M483.396 100.938C482.736 102.257 481.706 102.917 480.308 102.917C479.415 102.917 478.628 102.636 477.948 102.073C477.269 101.51 476.929 100.802 476.929 99.9484C476.929 99.5216 477.045 99.0365 477.278 98.4932L481.24 90.1693L470.403 67.6424C470.209 67.2543 470.112 66.8081 470.112 66.3036C470.112 65.4111 470.491 64.6543 471.248 64.0334C472.006 63.4126 472.87 63.1021 473.841 63.1021C474.501 63.1021 475.103 63.267 475.647 63.5969C476.191 63.9267 476.618 64.4409 476.929 65.1394L485.086 83.126L493.184 65.1976C493.495 64.4991 493.912 63.9849 494.437 63.6551C494.961 63.3252 495.534 63.1603 496.156 63.1603C497.049 63.1603 497.855 63.4611 498.573 64.0625C499.292 64.664 499.651 65.4111 499.651 66.3036C499.651 66.7305 499.535 67.1767 499.302 67.6424L483.396 100.938Z" fill="#242E4C"/>
</svg>
